<?xml version="1.0" encoding="UTF-8" standalone="no"?>
<!-- Created with Inkscape (http://www.inkscape.org/) -->

<svg
   width="297mm"
   height="76mm"
   viewBox="0 0 297 76"
   version="1.1"
   id="svg5"
   inkscape:version="1.1.2 (0a00cf5339, 2022-02-04)"
   sodipodi:docname="logo.svg"
   xmlns:inkscape="http://www.inkscape.org/namespaces/inkscape"
   xmlns:sodipodi="http://sodipodi.sourceforge.net/DTD/sodipodi-0.dtd"
   xmlns="http://www.w3.org/2000/svg"
   xmlns:svg="http://www.w3.org/2000/svg">
  <sodipodi:namedview
     id="namedview7"
     pagecolor="#ffffff"
     bordercolor="#111111"
     borderopacity="1"
     inkscape:pageshadow="0"
     inkscape:pageopacity="0"
     inkscape:pagecheckerboard="1"
     inkscape:document-units="mm"
     showgrid="false"
     height="209mm"
     inkscape:zoom="0.53100578"
     inkscape:cx="594.15549"
     inkscape:cy="541.42537"
     inkscape:window-width="1862"
     inkscape:window-height="1016"
     inkscape:window-x="0"
     inkscape:window-y="0"
     inkscape:window-maximized="1"
     inkscape:current-layer="layer1" />
  <defs
     id="defs2" />
  <g
     inkscape:label="Camada 1"
     inkscape:groupmode="layer"
     id="layer1">
    <g
       id="g46833"
       transform="translate(-5.2916669,-10.583334)">
      <circle
         style="fill:#f0c714;fill-opacity:1;stroke:none;stroke-width:0.30513"
         id="path1747"
         cx="92.1259"
         cy="36.565857"
         r="23.937065" />
      <path
         style="fill:#989e57;fill-opacity:1;stroke:none;stroke-width:0.264583px;stroke-linecap:butt;stroke-linejoin:miter;stroke-opacity:1"
         d="m 8.1970491,57.381353 c 13.3894349,18.36703 27.3357489,11.79307 41.2607199,6.17502 l -1.44234,-3.74483 c -12.192882,-9.9727 -24.693686,-17.3328 -39.8183799,-2.43019 z"
         id="path1487"
         sodipodi:nodetypes="cccc" />
      <path
         style="fill:#818a65;fill-opacity:1;stroke:none;stroke-width:0.264583px;stroke-linecap:butt;stroke-linejoin:miter;stroke-opacity:1"
         d="m 13.697534,39.472148 c 3.528269,22.453865 18.937642,22.971395 33.89165,24.329685 l 0.426245,-3.99029 C 41.719717,45.372543 33.957387,33.117448 13.697534,39.472148 Z"
         id="path1641"
         sodipodi:nodetypes="cccc" />
      <path
         style="fill:#60604f;fill-opacity:1;stroke:none;stroke-width:0.264583px;stroke-linecap:butt;stroke-linejoin:miter;stroke-opacity:1"
         d="m 26.872187,23.84571 c -5.862328,21.960373 8.018812,28.670863 21.143242,35.965833 l 2.004915,-3.47627 C 50.107895,40.58367 47.970365,26.235424 26.872187,23.84571 Z"
         id="path1723"
         sodipodi:nodetypes="cccc" />
      <path
         style="fill:#b69f77;fill-opacity:1;stroke:none;stroke-width:0.264583px;stroke-linecap:butt;stroke-linejoin:miter;stroke-opacity:1"
         d="m 28.252013,73.249823 c -4.254752,2.25136 -3.701421,4.65857 2.130414,7.23688 20.815253,6.86211 41.960728,5.93352 63.299728,-0.71953 2.23895,-1.11455 5.64446,-1.66258 2.21943,-5.5278 -3.47792,-3.69406 -2.89089,-5.56449 -2.86775,-7.68789 2.20662,-13.20111 0.11966,-22.87807 -4.43811,-29.506174 C 83.209695,29.21271 74.373255,25.63776 65.094465,25.536098 55.687611,25.433033 45.82611,28.89979 38.644292,35.119081 c -8.2792,7.169602 -12.997242,17.997172 -9.352293,31.230632 1.754912,2.36963 2.810319,4.7161 -1.039986,6.90011 z"
         id="path54"
         sodipodi:nodetypes="cccccssscc" />
      <ellipse
         style="fill:#3c3226;fill-opacity:1;stroke:none;stroke-width:0.299755;stroke-opacity:1"
         id="path42046"
         cx="75.636421"
         cy="54.210922"
         rx="9.61378"
         ry="17.279974" />
      <path
         style="fill:#ddab50;fill-opacity:1;stroke:none;stroke-width:0.264583px;stroke-linecap:butt;stroke-linejoin:miter;stroke-opacity:1"
         d="m 85.131185,39.507634 1.24638,0.07837 c -0.3245,3.168239 0.23624,6.610779 -3.76267,8.640469 -1.41663,0.65726 -2.45623,1.68105 -2.73104,3.44834 -2.15316,8.78934 -4.37907,11.40316 -11.7948,13.58745 l -1.70426,-4.08448 c 4.22201,-10.73963 11.89369,-15.49447 18.74639,-21.670149 z"
         id="path25160"
         sodipodi:nodetypes="ccccccc" />
      <path
         style="fill:#a26a3a;fill-opacity:1;stroke:none;stroke-width:0.264583px;stroke-linecap:butt;stroke-linejoin:miter;stroke-opacity:1"
         d="m 68.501835,42.387553 c 3.83514,-0.30877 5.74296,-1.54714 7.45288,-2.88096 3.17434,-2.356117 6.32402,-3.096528 9.43776,-1.480968 3.9236,-1.427173 7.77701,-2.385864 11.51421,-2.5688 -3.46533,0.918272 -6.93292,1.859826 -10.52912,4.129181 -0.11808,3.511417 -3.87989,6.619827 -6.77308,6.926807 -3.04588,0.40979 -3.31133,2.35315 -3.37252,2.91527 -0.6305,7.4034 -5.33466,9.45055 -9.84717,11.7497 -0.90687,-6.48835 -1.41286,-12.92078 2.11704,-18.79023 z"
         id="path20397"
         sodipodi:nodetypes="ccccccccc" />
      <ellipse
         style="fill:#3c3226;fill-opacity:1;stroke:none;stroke-width:0.264583;stroke-opacity:1"
         id="path21164"
         cx="52.227962"
         cy="75.447815"
         rx="1.3989097"
         ry="0.95077622"
         transform="rotate(-27.267143)" />
    </g>
    <g
       aria-label="João de Barro"
       id="text49301"
       style="font-size:35.4179px;line-height:1.25;font-family:Dyuthi;-inkscape-font-specification:'Dyuthi, Normal';fill:#3c3226;stroke-width:0.88545">
      <path
         d="m 96.930523,28.560057 q 0,0 4.842287,0 0.98576,0 1.67751,0.691756 0.69176,0.691755 0.69176,1.712095 v 11.310209 q 0,3.666306 -1.83316,6.000982 -2.10985,2.680554 -5.741569,1.919622 -1.902328,-0.380466 -1.902328,-1.988798 v -0.03459 q 0,-0.795519 0.53611,-1.33163 0.536111,-0.553404 1.210573,-0.518817 0.657168,0.03459 1.348924,-0.328584 1.504569,-0.760931 1.504569,-3.372309 V 32.088012 h -2.300088 q -0.605287,0 -1.10681,-0.363172 -0.501523,-0.380466 -0.587992,-0.951165 v -0.03459 q -0.207527,-0.79552 0.293996,-1.487275 0.518817,-0.691756 1.366218,-0.691756 z"
         id="path58437" />
      <path
         d="m 114.17254,47.548755 q 1.4181,0 2.55949,-1.297042 0.91658,-1.054928 0.91658,-5.153581 -0.0173,-2.057974 -0.96846,-3.112902 -0.96846,-1.054927 -2.50761,-1.054927 -1.33163,0 -2.31738,1.106809 -1.17599,1.314336 -1.17599,3.06102 0.0173,3.873832 1.17599,5.153581 1.15869,1.279748 2.31738,1.297042 z m 5.89722,-11.154563 q 2.43844,2.421145 2.43844,5.845337 0,3.424191 -2.47303,5.862631 -2.45573,2.421145 -5.3957,2.403851 -0.24211,0.01729 -0.46693,0 -3.32043,0.138352 -5.82805,-2.35197 -2.49032,-2.490321 -2.49032,-5.931806 0.0173,-3.458779 2.42115,-5.862631 2.42114,-2.403852 5.41299,-2.386558 0.22482,-0.01729 0.46693,-0.01729 3.47608,0 5.91452,2.43844 z"
         id="path58439" />
      <path
         d="m 135.56509,33.402348 q -0.41506,0.259408 -1.02034,0.259408 -1.07222,0 -2.35197,-0.605286 -1.27975,-0.605287 -1.86774,-0.605287 -0.60529,0 -1.45269,0.639875 -0.34588,0.259408 -0.72634,0.05188 -0.31129,-0.190233 -0.34588,-0.657168 -0.10377,-1.452687 1.4181,-2.300088 1.33163,-0.657168 3.52795,0.31129 1.29704,0.605286 1.86774,0.605286 0.0865,0 1.4181,-0.639874 0.5707,-0.259408 0.95117,-0.06918 0.38046,0.172939 0.38046,0.674462 0.0692,1.33163 -1.79856,2.334676 z m -6.62357,8.61236 v 1.141397 q 0,1.798566 0.95117,3.06102 0.95116,1.262454 2.30009,1.227867 0.79552,0.08647 1.60833,-0.155645 1.64292,-0.570699 1.64292,-2.490321 v -5.845338 q -0.31129,-0.985752 -1.79857,-1.539156 -1.48727,-0.570699 -3.0956,0.190233 -1.60834,0.743637 -1.60834,4.409943 z m -2.5249,5.966394 q -2.21362,-2.334676 -2.21362,-5.63781 0.0173,-3.320428 2.21362,-5.655104 2.23091,-2.334676 5.3784,-2.334676 2.64596,0 3.64901,2.334676 0,-0.760931 0.5707,-1.33163 0.50152,-0.501523 1.26245,-0.501523 h 1.33163 q 0.76093,0 1.29705,0.501523 0.53611,0.570699 0.53611,1.33163 v 12.624544 q 0,0.449642 -0.31129,0.726344 -0.294,0.276702 -0.70905,0.276702 h -2.07527 q -0.44964,0 -1.03764,-0.62258 -0.58799,-0.62258 -1.05492,-0.691756 -0.46694,-0.06917 -0.88199,0.207527 -1.7121,1.106809 -2.57679,1.106809 -3.14749,0 -5.3784,-2.334676 z"
         id="path58441" />
      <path
         d="m 150.43784,47.548755 q 1.4181,0 2.5595,-1.297042 0.91657,-1.054928 0.91657,-5.153581 -0.0173,-2.057974 -0.96845,-3.112902 -0.96846,-1.054927 -2.50762,-1.054927 -1.33163,0 -2.31738,1.106809 -1.17599,1.314336 -1.17599,3.06102 0.0173,3.873832 1.17599,5.153581 1.15869,1.279748 2.31738,1.297042 z m 5.89722,-11.154563 q 2.43844,2.421145 2.43844,5.845337 0,3.424191 -2.47303,5.862631 -2.45573,2.421145 -5.39569,2.403851 -0.24212,0.01729 -0.46694,0 -3.32043,0.138352 -5.82804,-2.35197 -2.49032,-2.490321 -2.49032,-5.931806 0.0173,-3.458779 2.42114,-5.862631 2.42115,-2.403852 5.41299,-2.386558 0.22482,-0.01729 0.46694,-0.01729 3.47607,0 5.91451,2.43844 z"
         id="path58443" />
      <path
         d="m 174.37259,41.080838 q 0,0 0,2.075267 0,1.798566 0.93387,3.06102 0.95117,1.262454 2.35197,1.227867 0.76093,0.08647 1.57375,-0.155645 1.64292,-0.570699 1.67751,-2.490321 0,0 0,-5.845338 -0.34588,-0.985752 -1.83316,-1.539156 -1.48727,-0.570699 -3.06102,0.190233 -0.76093,0.345877 -1.21057,1.314336 -0.43235,0.985752 -0.43235,2.161737 z m 2.8362,-6.727326 q 1.95421,0 3.7009,1.003046 v -5.205463 q -0.0173,-1.003046 0.70905,-1.72939 0.72634,-0.726343 1.74668,-0.726343 h 0.0692 q 1.00305,0 1.72939,0.726343 0.72635,0.726344 0.72635,1.72939 v 19.161637 q 0.0346,0.380466 -0.294,0.691756 -0.31129,0.31129 -0.72634,0.31129 h -2.95726 q -0.44964,0 -0.74364,-0.31129 -0.29399,-0.31129 -0.2594,-0.691756 -1.72939,1.003046 -3.7009,1.003046 -3.14749,0 -5.36111,-2.334676 -2.21361,-2.334676 -2.21361,-5.63781 0,-3.320428 2.21361,-5.655104 2.21362,-2.334676 5.36111,-2.334676 z"
         id="path58445" />
      <path
         d="m 195.57491,37.466413 q -1.22787,0 -2.42115,1.054928 -0.76093,0.674462 -1.05492,2.196325 h 7.57472 q -0.5707,-2.006092 -1.6948,-2.628672 -1.1241,-0.622581 -2.40385,-0.622581 z m 7.6612,4.876879 v 0.01729 q 0,1.452687 -1.38352,1.452687 h -9.6327 q 0.50153,1.573745 1.02034,2.075268 1.91963,1.763977 5.119,0.328584 l 1.78127,-0.795519 q 1.15869,-0.518817 1.78127,0.363172 0.62258,0.881988 0.41505,1.815859 l -0.0346,0.01729 q -0.17294,0.778225 -1.59104,1.55645 -2.05798,1.141397 -5.6724,1.10681 -2.59409,0 -5.01523,-2.317382 -2.40385,-2.317383 -2.40385,-5.620517 0,-3.320428 2.31738,-5.672398 2.33468,-2.334676 5.49946,-2.282794 3.16478,0.05188 5.48216,2.2655 2.31739,2.213619 2.31739,5.689692 z"
         id="path58447" />
      <path
         d="m 221.13529,40.406376 h -1.08952 q -0.2767,0 -0.50152,0.190233 -0.22482,0.190233 -0.22482,0.484229 v 5.395695 q 0,0.259409 0.20753,0.432348 0.20752,0.190233 0.53611,0.190233 0.32858,0 1.76397,0.01729 1.4181,0.01729 2.69785,-0.657168 1.27975,-0.674462 1.27975,-2.697848 0,-2.023386 -1.29704,-2.680554 -1.29704,-0.674462 -3.37231,-0.674462 z m -1.81586,-7.747666 v 4.513707 q 0,0.259409 0.19023,0.432348 0.19024,0.172939 0.51882,0.190232 h 0.91658 q 1.91962,0 2.92266,-0.62258 1.00305,-0.639874 0.98576,-2.213619 -0.0519,-2.957256 -3.44149,-2.97455 -0.83011,0 -1.45269,0.03459 -0.63987,0.03459 -0.63987,0.639874 z m 8.02437,5.983688 q 0,0.432348 0.22482,0.501523 3.70089,1.124104 3.6836,4.911467 0,2.680554 -2.36927,4.427237 -2.36926,1.746684 -9.0447,1.763978 -0.17294,0 -3.28584,0.121057 -0.91658,0.03459 -1.64292,-0.587992 -0.72635,-0.639874 -0.72635,-1.625627 V 30.877439 q 0,-0.933871 0.67446,-1.556451 0.67447,-0.62258 1.57375,-0.62258 1.83315,0.05188 4.47912,0.08647 4.72123,0.05188 6.84838,1.175985 2.74973,1.33163 2.74973,4.167829 0,2.836199 -2.97455,4.185123 -0.19023,0.103764 -0.19023,0.328584 z"
         id="path58449" />
      <path
         d="m 237.33967,42.014708 q 0,0 0,1.141397 0,1.798566 0.95117,3.06102 0.95116,1.262454 2.30009,1.227867 0.79552,0.08647 1.60833,-0.155645 1.64292,-0.570699 1.64292,-2.490321 0,0 0,-5.845338 -0.31129,-0.985752 -1.79857,-1.539156 -1.48727,-0.570699 -3.0956,0.190233 -1.60834,0.743637 -1.60834,4.409943 z m -2.5249,5.966394 q -2.21362,-2.334676 -2.21362,-5.63781 0,-3.320428 2.21362,-5.655104 2.21361,-2.334676 5.3611,-2.334676 2.64597,0 3.66631,2.334676 0,-0.760931 0.5707,-1.33163 0.50152,-0.501523 1.26245,-0.501523 h 1.33163 q 0.76093,0 1.29704,0.501523 0.53612,0.570699 0.53612,1.33163 v 12.624544 q 0,0.449642 -0.31129,0.726344 -0.294,0.276702 -0.70905,0.276702 h -2.07527 q -0.44964,0 -1.03764,-0.62258 -0.58799,-0.62258 -1.05492,-0.691756 -0.46694,-0.06917 -0.88199,0.207527 -1.7121,1.106809 -2.59409,1.106809 -3.14749,0 -5.3611,-2.334676 z"
         id="path58451" />
      <path
         d="m 256.98553,35.079856 q 1.00305,-0.70905 3.64902,-0.70905 0.48423,0 0.74363,0.345878 0.25941,0.345878 0.17294,0.760931 l -0.34588,1.608333 q -0.24211,1.539156 -1.19327,1.400805 -1.59104,-0.259408 -2.8362,0.622581 -1.24516,0.881988 -1.26246,2.023385 v 0.03459 h -0.0346 v 6.692738 q 0,0.968458 -0.70905,1.694802 -0.70904,0.726344 -1.72938,0.726344 h -0.0519 q -1.00304,0 -1.71209,-0.691756 -0.69176,-0.70905 -0.69176,-1.72939 V 36.878421 q 0,-1.003046 0.72635,-1.72939 0.72634,-0.70905 1.71209,-0.70905 h 0.0865 q 1.26246,0 2.43844,1.798566 0.53611,-0.812813 1.03763,-1.158691 z"
         id="path58453" />
      <path
         d="m 269.54091,35.079856 q 1.00304,-0.70905 3.64901,-0.70905 0.48423,0 0.74364,0.345878 0.25941,0.345878 0.17294,0.760931 l -0.34588,1.608333 q -0.24212,1.539156 -1.19328,1.400805 -1.59104,-0.259408 -2.8362,0.622581 -1.24516,0.881988 -1.26245,2.023385 v 0.03459 h -0.0346 v 6.692738 q 0,0.968458 -0.70905,1.694802 -0.70905,0.726344 -1.72939,0.726344 h -0.0519 q -1.00305,0 -1.7121,-0.691756 -0.69175,-0.70905 -0.69175,-1.72939 V 36.878421 q 0,-1.003046 0.72634,-1.72939 0.72634,-0.70905 1.7121,-0.70905 h 0.0865 q 1.26245,0 2.43843,1.798566 0.53612,-0.812813 1.03764,-1.158691 z"
         id="path58455" />
      <path
         d="m 283.98132,47.548755 q 1.4181,0 2.55949,-1.297042 0.91658,-1.054928 0.91658,-5.153581 -0.0173,-2.057974 -0.96846,-3.112902 -0.96846,-1.054927 -2.50761,-1.054927 -1.33163,0 -2.31739,1.106809 -1.17598,1.314336 -1.17598,3.06102 0.0173,3.873832 1.17598,5.153581 1.1587,1.279748 2.31739,1.297042 z m 5.89722,-11.154563 q 2.43844,2.421145 2.43844,5.845337 0,3.424191 -2.47303,5.862631 -2.45574,2.421145 -5.3957,2.403851 -0.24211,0.01729 -0.46693,0 -3.32043,0.138352 -5.82805,-2.35197 -2.49032,-2.490321 -2.49032,-5.931806 0.0173,-3.458779 2.42115,-5.862631 2.42114,-2.403852 5.41299,-2.386558 0.22482,-0.01729 0.46693,-0.01729 3.47608,0 5.91452,2.43844 z"
         id="path58457" />
    </g>
  </g>
</svg>
