<?xml version="1.0" standalone="no"?>
<!DOCTYPE svg PUBLIC "-//W3C//DTD SVG 20010904//EN"
 "http://www.w3.org/TR/2001/REC-SVG-20010904/DTD/svg10.dtd">
<svg version="1.0" xmlns="http://www.w3.org/2000/svg"
 width="700.000000pt" height="700.000000pt" viewBox="0 0 700.000000 700.000000"
 preserveAspectRatio="xMidYMid meet">
<metadata>
Created by potrace 1.14, written by Peter Selinger 2001-2017
</metadata>
<g transform="translate(0.000000,700.000000) scale(0.100000,-0.100000)"
fill="#000000" stroke="none">
<path d="M5238 5795 c-1 -2 -28 -6 -58 -10 -182 -22 -455 -126 -616 -236 -204
-138 -394 -347 -499 -546 -19 -38 -31 -51 -45 -48 -10 2 -47 7 -82 10 -35 4
-76 9 -93 11 -35 4 -323 4 -375 0 -256 -22 -511 -82 -753 -178 -97 -38 -281
-126 -344 -165 l-32 -19 -73 70 c-76 72 -212 167 -310 217 -103 52 -309 122
-423 145 -11 2 -31 6 -45 9 -14 3 -43 7 -65 11 -22 3 -47 7 -55 9 -8 2 -36 7
-62 10 -51 7 -45 14 -63 -72 -3 -13 -7 -33 -10 -45 -5 -20 -25 -131 -40 -217
-22 -130 -22 -400 0 -521 l4 -25 -132 0 c-160 -1 -248 -11 -412 -46 -122 -27
-225 -58 -225 -68 0 -27 46 -231 72 -321 36 -127 66 -206 113 -305 19 -41 35
-78 35 -82 -1 -4 -27 -21 -59 -36 -121 -58 -326 -207 -469 -342 l-43 -41 37
-49 c123 -163 319 -361 454 -456 188 -133 399 -221 580 -244 19 -2 55 -7 80
-11 56 -7 258 -7 271 1 5 4 9 3 10 -2 0 -4 2 -16 4 -25 2 -9 -2 -36 -7 -58
-14 -53 -75 -112 -188 -183 -101 -63 -152 -126 -143 -179 17 -111 179 -222
437 -300 139 -42 371 -104 421 -113 17 -2 41 -7 55 -10 54 -13 327 -64 370
-69 25 -3 56 -8 70 -11 31 -5 97 -13 175 -20 33 -4 74 -8 90 -10 31 -4 182
-14 290 -20 210 -11 645 -1 855 20 19 2 64 6 100 10 36 3 79 8 95 10 51 7 109
15 140 20 17 3 48 7 70 10 41 6 201 32 245 41 14 3 45 9 70 13 25 5 79 16 120
26 41 9 86 19 100 21 158 31 588 154 683 195 127 56 166 92 167 152 0 57 -20
92 -116 202 -66 75 -121 168 -141 234 -22 78 -17 238 12 391 4 20 15 136 19
195 1 17 13 22 91 33 444 62 823 298 1072 667 123 183 216 432 241 650 9 78 9
326 0 390 -27 187 -74 332 -164 506 -148 285 -403 528 -697 667 -71 33 -250
96 -302 106 -151 27 -219 34 -352 34 -83 0 -153 -1 -155 -3z"/>
</g>
</svg>
